<svg width="26" height="26" viewBox="0 0 26 26" fill="none" xmlns="http://www.w3.org/2000/svg">
<path d="M13.9582 19.5633L8.49614 13.9028H20.4523C21.0219 13.9028 21.4842 13.4237 21.4842 12.8333C21.4842 12.243 21.0219 11.7639 20.4523 11.7639H8.49614L13.9582 6.10332C14.3617 5.68517 14.3617 5.00821 13.9582 4.59113C13.5548 4.17404 12.9015 4.17297 12.4991 4.59113L5.27543 12.0772C5.17636 12.1799 5.10206 12.2975 5.0515 12.4237C4.94727 12.6857 4.94727 12.982 5.0515 13.244C5.10103 13.3681 5.1743 13.4836 5.27027 13.5852C5.27233 13.5873 5.27337 13.5884 5.27543 13.5905L12.4991 21.0766C12.9026 21.4948 13.5558 21.4948 13.9582 21.0766C14.3607 20.6585 14.3617 19.9815 13.9582 19.5644V19.5633Z" fill="#4E4E4E"/>
</svg>
