<svg width="28" height="29" viewBox="0 0 28 29" fill="none" xmlns="http://www.w3.org/2000/svg">
<path d="M13.0455 7.63029L19.0042 13.8055L5.96108 13.8055C5.33966 13.8055 4.83532 14.3281 4.83532 14.9721C4.83532 15.6161 5.33966 16.1388 5.96108 16.1388H19.0042L13.0455 22.314C12.6053 22.7701 12.6053 23.5086 13.0455 23.9636C13.4857 24.4186 14.1983 24.4198 14.6373 23.9636L22.5177 15.797C22.6257 15.685 22.7068 15.5566 22.762 15.419C22.8757 15.1331 22.8757 14.81 22.762 14.5241C22.7079 14.3888 22.628 14.2628 22.5233 14.152C22.521 14.1496 22.5199 14.1485 22.5177 14.1461L14.6373 5.97946C14.1972 5.52329 13.4845 5.52329 13.0455 5.97946C12.6065 6.43563 12.6053 7.17413 13.0455 7.62913V7.63029Z" fill="#4E4E4E"/>
</svg>
