<svg width="12" height="14" viewBox="0 0 12 14" fill="none" xmlns="http://www.w3.org/2000/svg">
<path d="M11.8333 5.83333C11.8333 5.04408 11.6764 4.29042 11.3912 3.60267C11.0954 2.88867 10.662 2.24642 10.1247 1.70858C9.5875 1.17133 8.94525 0.737917 8.23067 0.442167C7.54291 0.156917 6.78925 0 6 0C5.21075 0 4.45708 0.156917 3.76933 0.442167C3.05475 0.737917 2.4125 1.17133 1.87525 1.70858C1.338 2.24583 0.904581 2.88808 0.608831 3.60267C0.323581 4.29042 0.166664 5.04408 0.166664 5.83333C0.166664 6.16525 0.197581 6.49133 0.254164 6.811C0.413998 7.714 0.778581 8.56333 1.23533 9.331C1.73641 10.1727 2.35708 10.9317 2.96725 11.5739C3.47883 12.1123 3.98808 12.5743 4.42325 12.9407C4.73125 13.1997 5.00308 13.412 5.21425 13.5701C5.34375 13.6675 5.45108 13.7445 5.52925 13.7999C5.62083 13.8647 5.67683 13.902 5.67683 13.902C5.86991 14.0286 6.12308 14.0356 6.32375 13.902C6.32375 13.902 6.38033 13.8641 6.47133 13.7999C6.5495 13.7445 6.65625 13.6675 6.78633 13.5701C6.9975 13.412 7.26933 13.1997 7.57733 12.9407C8.0125 12.5743 8.52175 12.1123 9.03333 11.5739C9.6435 10.9317 10.2642 10.1727 10.7652 9.331C11.222 8.56333 11.5866 7.714 11.7464 6.811C11.8024 6.49133 11.8333 6.16525 11.8333 5.83333ZM10.6667 5.83333C10.6667 6.09233 10.6427 6.35075 10.5972 6.608C10.4683 7.33717 10.1673 8.0535 9.76191 8.73483C9.31741 9.4815 8.75625 10.1716 8.18691 10.7707C7.7115 11.2712 7.23491 11.7034 6.82541 12.0482C6.53608 12.2914 6.28116 12.4903 6.08575 12.6373C6.05541 12.6601 6.02683 12.6811 6 12.7015C5.97258 12.6817 5.944 12.6601 5.91425 12.6373C5.71825 12.4903 5.46333 12.2914 5.17458 12.0482C4.76508 11.7034 4.28908 11.2712 3.81308 10.7707C3.24375 10.1716 2.68258 9.4815 2.23808 8.73483C1.83266 8.0535 1.53166 7.33717 1.40275 6.608C1.35725 6.35075 1.33333 6.09233 1.33333 5.83333C1.33333 5.20042 1.45933 4.59783 1.68625 4.04892C1.92308 3.47842 2.26958 2.96392 2.70008 2.53342C3.13058 2.10292 3.64508 1.75583 4.21558 1.51958C4.7645 1.29267 5.36708 1.16667 6 1.16667C6.63291 1.16667 7.2355 1.29267 7.78441 1.51958C8.35491 1.75583 8.86883 2.10233 9.29991 2.53342C9.731 2.9645 10.0775 3.47842 10.3137 4.04892C10.5407 4.59783 10.6667 5.20042 10.6667 5.83333ZM8.33333 5.83333C8.33333 5.51833 8.27033 5.21675 8.15658 4.94083C8.03816 4.655 7.86491 4.39833 7.65025 4.18367C7.43558 3.969 7.17833 3.79517 6.8925 3.67675C6.61658 3.563 6.315 3.5 6 3.5C5.685 3.5 5.38341 3.563 5.1075 3.67675C4.82166 3.79517 4.565 3.96842 4.35033 4.18308C4.13566 4.39775 3.96183 4.655 3.84341 4.94083C3.72966 5.21675 3.66666 5.51833 3.66666 5.83333C3.66666 6.14833 3.72966 6.44992 3.84341 6.72583C3.96183 7.01167 4.13508 7.26833 4.34975 7.483C4.56441 7.69767 4.82108 7.87092 5.10691 7.98933C5.38341 8.10367 5.685 8.16667 6 8.16667C6.315 8.16667 6.61658 8.10367 6.8925 7.98992C7.17833 7.8715 7.435 7.69825 7.64966 7.48358C7.86433 7.26892 8.03758 7.01225 8.156 6.72642C8.27033 6.44992 8.33333 6.14833 8.33333 5.83333ZM7.16666 5.83333C7.16666 5.99258 7.13516 6.1425 7.07858 6.27958C7.01966 6.42192 6.93275 6.55025 6.82483 6.65875C6.71691 6.76725 6.588 6.85358 6.44566 6.9125C6.30916 6.9685 6.15925 7 6 7C5.84075 7 5.69083 6.9685 5.55375 6.91192C5.41141 6.853 5.28308 6.76608 5.17458 6.65817C5.06608 6.55025 4.97975 6.42133 4.92083 6.279C4.86483 6.1425 4.83333 5.99258 4.83333 5.83333C4.83333 5.67408 4.86483 5.52417 4.92141 5.38708C4.98033 5.24475 5.06725 5.11642 5.17516 5.00792C5.28308 4.89942 5.412 4.81308 5.55433 4.75417C5.69083 4.69817 5.84075 4.66667 6 4.66667C6.15925 4.66667 6.30916 4.69817 6.44625 4.75475C6.58858 4.81367 6.71691 4.90058 6.82541 5.0085C6.93391 5.11642 7.02025 5.24533 7.07916 5.38767C7.13516 5.52417 7.16666 5.67408 7.16666 5.83333Z" fill="white"/>
</svg>
