<svg width="14" height="12" viewBox="0 0 14 12" fill="none" xmlns="http://www.w3.org/2000/svg">
<path d="M1.75 3.62058L6.66575 7.06167C6.86409 7.19875 7.1295 7.20517 7.33484 7.06167L12.25 3.62058V9.5C12.25 9.57817 12.2343 9.65225 12.2063 9.71992C12.1765 9.79108 12.1328 9.85642 12.0779 9.91125C12.0231 9.96608 11.9578 10.0098 11.8866 10.0396C11.8189 10.0676 11.7448 10.0833 11.6667 10.0833H2.33334C2.25517 10.0833 2.18109 10.0676 2.11342 10.0396C2.04225 10.0098 1.97692 9.96608 1.92209 9.91125C1.86725 9.85642 1.8235 9.79108 1.79375 9.71992C1.76575 9.65225 1.75 9.57817 1.75 9.5V3.62058ZM0.583336 2.507V9.5C0.583336 9.73508 0.630586 9.96083 0.715753 10.1667C0.805003 10.382 0.935669 10.5751 1.09667 10.7367C1.25767 10.8983 1.45134 11.0289 1.66659 11.1176C1.8725 11.2028 2.09825 11.25 2.33334 11.25H11.6667C11.9018 11.25 12.1275 11.2028 12.3334 11.1176C12.5487 11.0283 12.7418 10.8977 12.9033 10.7367C13.0649 10.5757 13.1956 10.382 13.2843 10.1667C13.3694 9.96083 13.4167 9.73508 13.4167 9.5V2.5C13.4167 2.4965 13.4167 2.493 13.4167 2.49008C13.4155 2.2585 13.3683 2.03683 13.2843 1.83383C13.195 1.61858 13.0643 1.4255 12.9033 1.26392C12.7423 1.10233 12.5487 0.971667 12.3334 0.883C12.1275 0.79725 11.9018 0.75 11.6667 0.75H2.33334C2.09825 0.75 1.8725 0.79725 1.66659 0.882417C1.45134 0.971667 1.25825 1.10233 1.09667 1.26333C0.935086 1.42433 0.805003 1.618 0.715753 1.83325C0.631753 2.03625 0.584503 2.2585 0.583336 2.49008C0.583336 2.493 0.583336 2.4965 0.583336 2.5V2.507ZM12.1882 2.23983L7 5.87108L1.81184 2.23983C1.83984 2.18442 1.87717 2.13308 1.9215 2.08875C1.97692 2.03333 2.04167 1.98958 2.11342 1.96042C2.18109 1.93242 2.25517 1.91667 2.33334 1.91667H11.6667C11.7448 1.91667 11.8189 1.93242 11.8866 1.96042C11.9578 1.99017 12.0231 2.03392 12.0779 2.08875C12.1223 2.13308 12.1596 2.18442 12.1876 2.23983H12.1882Z" fill="white"/>
</svg>
