<svg width="14" height="14" viewBox="0 0 14 14" fill="none" xmlns="http://www.w3.org/2000/svg">
<path d="M13.4167 9.87002C13.4213 9.67168 13.3875 9.46635 13.3222 9.27443C13.2545 9.07785 13.1536 8.89585 13.0241 8.7366C12.8876 8.5686 12.7202 8.42568 12.5277 8.3166C12.3416 8.2116 12.1339 8.13927 11.9012 8.1066C11.4345 8.04943 10.9124 7.92343 10.3927 7.72977C10.1401 7.63702 9.87175 7.6026 9.60867 7.62827C9.41267 7.64752 9.219 7.69943 9.037 7.7846C8.86025 7.86743 8.69517 7.98118 8.54817 8.12702L8.12817 8.54702C7.09567 7.89543 6.16817 6.99127 5.45475 5.8701L5.87825 5.4466C6.06609 5.2541 6.20667 5.0231 6.29067 4.77226C6.35309 4.5856 6.38459 4.38726 6.38109 4.18601C6.37759 3.9906 6.34084 3.79401 6.26792 3.59918C6.09934 3.15993 5.96575 2.64018 5.89225 2.08543C5.8625 1.87951 5.79717 1.68585 5.70325 1.50968C5.60642 1.33001 5.47984 1.16843 5.32992 1.0331C5.17009 0.889015 4.98342 0.774098 4.77809 0.696515C4.57975 0.621265 4.3645 0.581015 4.1475 0.583348H2.39984C2.3485 0.583348 2.29367 0.585681 2.24059 0.590348C2.0055 0.611348 1.78442 0.679015 1.58609 0.782848C1.38017 0.890765 1.2005 1.03776 1.05467 1.21218C0.908836 1.3866 0.796836 1.59076 0.72742 1.81243C0.66092 2.02651 0.634086 2.25576 0.65567 2.49493C0.83067 4.28926 1.45192 6.13668 2.53167 7.80443C3.40784 9.21202 4.65967 10.5012 6.2055 11.4829C7.7035 12.4728 9.52117 13.1524 11.5057 13.3677C11.5593 13.3729 11.6171 13.3753 11.6737 13.3753C11.9099 13.3741 12.1357 13.3263 12.3428 13.2399C12.5568 13.1501 12.7488 13.0194 12.9092 12.8578C13.0696 12.6963 13.1985 12.5032 13.2866 12.2885C13.3718 12.0814 13.4178 11.8545 13.4167 11.6212V9.87002ZM12.25 9.87002V11.62C12.2506 11.7023 12.2348 11.7775 12.2068 11.8458C12.1777 11.9169 12.1345 11.9817 12.0808 12.0359C12.0272 12.0902 11.9624 12.1339 11.8918 12.1637C11.8242 12.1923 11.7489 12.208 11.669 12.2086C11.648 12.2086 11.6293 12.2074 11.6177 12.2063C9.83267 12.012 8.19175 11.3966 6.8495 10.5093C5.43317 9.60927 4.30675 8.44552 3.52334 7.18785C2.53342 5.65951 1.97459 3.9906 1.81767 2.38235C1.81067 2.30651 1.82 2.23068 1.84159 2.16068C1.86434 2.0866 1.90167 2.01835 1.95067 1.95943C1.99967 1.90051 2.05975 1.85151 2.128 1.81593C2.19334 1.7821 2.26625 1.75935 2.34617 1.75235C2.366 1.7506 2.3835 1.75001 2.39517 1.75001H4.1475C4.22917 1.74943 4.29975 1.76285 4.36509 1.78735C4.43275 1.81301 4.49459 1.85093 4.54825 1.89935C4.59842 1.94485 4.641 1.9991 4.67367 2.05976C4.70517 2.11868 4.72734 2.18401 4.73725 2.25401C4.8195 2.87935 4.97525 3.48951 5.17825 4.0186C5.201 4.07985 5.21325 4.1446 5.21384 4.20818C5.215 4.2741 5.2045 4.33943 5.1835 4.40243C5.15492 4.48701 5.10709 4.56635 5.04234 4.63285L4.30675 5.36843C4.11775 5.55743 4.08567 5.84327 4.21225 6.06902C5.13625 7.6936 6.45167 8.9606 7.9345 9.78952C8.16609 9.91901 8.449 9.87352 8.63159 9.69268L9.37242 8.95185C9.41967 8.90518 9.47392 8.86785 9.53167 8.84102C9.59117 8.81302 9.65534 8.79552 9.72125 8.7891C9.80992 8.78035 9.90209 8.79202 9.989 8.8241C10.5852 9.04635 11.1965 9.1951 11.7588 9.26393C11.8236 9.27326 11.8924 9.29718 11.9531 9.3316C12.0161 9.36718 12.0721 9.41502 12.1182 9.47102C12.1619 9.52468 12.1958 9.58593 12.2185 9.65185C12.2407 9.71601 12.2518 9.78485 12.25 9.86885V9.87002Z" fill="white"/>
</svg>
