<svg width="19" height="18" viewBox="0 0 19 18" fill="none" xmlns="http://www.w3.org/2000/svg">
<path d="M12.8373 11.892C12.8118 11.9115 12.787 11.9332 12.763 11.9572C12.739 11.9812 12.718 12.0052 12.6978 12.0315C12.2275 12.4845 11.674 12.8498 11.0628 13.1033C10.4463 13.3583 9.76902 13.5 9.05652 13.5C8.34402 13.5 7.66677 13.3582 7.04877 13.1025C6.40677 12.837 5.82852 12.447 5.34402 11.9618C4.85952 11.4765 4.46952 10.899 4.20327 10.257C3.94827 9.63975 3.80652 8.9625 3.80652 8.25C3.80652 7.5375 3.94827 6.86025 4.20402 6.24225C4.46952 5.601 4.85952 5.022 5.34402 4.5375C5.82852 4.053 6.40752 3.663 7.04877 3.3975C7.66677 3.14175 8.34402 3 9.05652 3C9.76902 3 10.4463 3.14175 11.0643 3.3975C11.7063 3.663 12.2845 4.053 12.769 4.53825C13.2535 5.0235 13.6435 5.601 13.9098 6.243C14.1648 6.86025 14.3065 7.5375 14.3065 8.25C14.3065 8.9625 14.1648 9.63975 13.909 10.2577C13.6555 10.869 13.2903 11.4225 12.8373 11.8927V11.892ZM17.0868 15.2197L14.3305 12.4635C14.7243 11.9715 15.0505 11.4233 15.295 10.8315C15.625 10.035 15.8065 9.16275 15.8065 8.25C15.8065 7.33725 15.625 6.465 15.295 5.6685C14.953 4.842 14.4513 4.09875 13.8295 3.477C13.2078 2.85525 12.4645 2.3535 11.638 2.0115C10.8415 1.6815 9.96927 1.5 9.05652 1.5C8.14377 1.5 7.27152 1.6815 6.47502 2.0115C5.64852 2.3535 4.90527 2.85525 4.28352 3.477C3.66177 4.09875 3.16002 4.842 2.81802 5.6685C2.48802 6.465 2.30652 7.33725 2.30652 8.25C2.30652 9.16275 2.48802 10.035 2.81802 10.8315C3.16002 11.658 3.66177 12.4012 4.28352 13.023C4.90527 13.6448 5.64852 14.1465 6.47502 14.4885C7.27152 14.8185 8.14377 15 9.05652 15C9.96927 15 10.8415 14.8185 11.638 14.4885C12.229 14.2433 12.778 13.917 13.27 13.524L16.0263 16.2803C16.3195 16.5735 16.7943 16.5735 17.0868 16.2803C17.3793 15.987 17.38 15.5122 17.0868 15.2197Z" fill="white"/>
</svg>
