<svg width="19" height="18" viewBox="0 0 19 18" fill="none" xmlns="http://www.w3.org/2000/svg">
<path d="M9.05652 15.75C9.05652 15.5483 9.01602 15.354 8.94252 15.1763C8.86602 14.9918 8.75502 14.8275 8.61702 14.6895C8.47902 14.5515 8.31402 14.4405 8.13027 14.364C7.95252 14.2905 7.75827 14.25 7.55652 14.25C7.35477 14.25 7.16052 14.2905 6.98277 14.364C6.79827 14.4405 6.63402 14.5515 6.49602 14.6895C6.35802 14.8275 6.24702 14.9925 6.17052 15.1763C6.09702 15.354 6.05652 15.5483 6.05652 15.75C6.05652 15.9517 6.09702 16.146 6.17052 16.3237C6.24702 16.5082 6.35802 16.6725 6.49602 16.8105C6.63402 16.9485 6.79902 17.0595 6.98277 17.136C7.16052 17.2095 7.35477 17.25 7.55652 17.25C7.75827 17.25 7.95252 17.2095 8.13027 17.136C8.31477 17.0595 8.47902 16.9485 8.61702 16.8105C8.75502 16.6725 8.86602 16.5075 8.94252 16.3237C9.01602 16.146 9.05652 15.9517 9.05652 15.75ZM17.3065 15.75C17.3065 15.5483 17.266 15.354 17.1925 15.1763C17.116 14.9918 17.005 14.8275 16.867 14.6895C16.729 14.5515 16.564 14.4405 16.3803 14.364C16.2025 14.2905 16.0083 14.25 15.8065 14.25C15.6048 14.25 15.4105 14.2905 15.2328 14.364C15.0483 14.4405 14.884 14.5515 14.746 14.6895C14.608 14.8275 14.497 14.9925 14.4205 15.1763C14.347 15.354 14.3065 15.5483 14.3065 15.75C14.3065 15.9517 14.347 16.146 14.4205 16.3237C14.497 16.5082 14.608 16.6725 14.746 16.8105C14.884 16.9485 15.049 17.0595 15.2328 17.136C15.4105 17.2095 15.6048 17.25 15.8065 17.25C16.0083 17.25 16.2025 17.2095 16.3803 17.136C16.5648 17.0595 16.729 16.9485 16.867 16.8105C17.005 16.6725 17.116 16.5075 17.1925 16.3237C17.266 16.146 17.3065 15.9517 17.3065 15.75ZM6.22227 5.25H17.1498L16.1215 10.6432C16.1043 10.728 16.0735 10.8067 16.0323 10.878C15.9895 10.9507 15.9355 11.0153 15.8725 11.07C15.8035 11.1293 15.724 11.1765 15.6385 11.2072C15.556 11.2372 15.466 11.253 15.3565 11.2508H8.05602C7.96977 11.2523 7.88577 11.2388 7.80777 11.2133C7.72752 11.187 7.65327 11.148 7.58652 11.0985C7.51377 11.0438 7.45077 10.9762 7.40277 10.8997C7.35627 10.8255 7.32177 10.7415 7.30227 10.6462L6.22227 5.25ZM1.55652 1.5H3.94152L4.56552 4.61625C4.56852 4.63725 4.57302 4.659 4.57827 4.67925L5.83152 10.9395C5.88627 11.2148 5.98977 11.4705 6.13302 11.6978C6.28077 11.9325 6.46902 12.135 6.68652 12.2977C6.88452 12.4462 7.10652 12.5617 7.34352 12.639C7.57602 12.7147 7.82427 12.7537 8.07777 12.75H15.3573C15.6243 12.7553 15.8965 12.7087 16.1493 12.6172C16.4103 12.5227 16.648 12.3825 16.8535 12.2048C17.0403 12.0435 17.2008 11.8507 17.3275 11.6355C17.4513 11.424 17.542 11.1907 17.5923 10.9417L18.7938 4.64025C18.871 4.233 18.6048 3.84075 18.1975 3.76275C18.148 3.75375 18.0993 3.74925 18.0565 3.75H5.92152L5.29152 0.603C5.22102 0.2565 4.91877 0 4.55652 0H1.55652C1.14252 0 0.806519 0.336 0.806519 0.75C0.806519 1.164 1.14252 1.5 1.55652 1.5V1.5Z" fill="white"/>
</svg>
