<svg width="10" height="10" viewBox="0 0 10 10" fill="none" xmlns="http://www.w3.org/2000/svg">
<path d="M8.67101 4.58758L5.58342 7.67516V0.916662C5.58342 0.594662 5.32209 0.333328 5.00009 0.333328C4.67809 0.333328 4.41676 0.594662 4.41676 0.916662V7.67516L1.32917 4.58758C1.10109 4.35949 0.73184 4.35949 0.50434 4.58758C0.27684 4.81566 0.276257 5.18491 0.50434 5.41241L4.58767 9.49574C4.64367 9.55175 4.70842 9.59374 4.77726 9.62233C4.84726 9.65091 4.92134 9.66608 4.99542 9.66666C5.07301 9.66724 5.15059 9.65266 5.22292 9.62233C5.29176 9.59374 5.35651 9.55175 5.41251 9.49574L9.49584 5.41241C9.72392 5.18433 9.72392 4.81508 9.49584 4.58758C9.26776 4.36008 8.89851 4.35949 8.67101 4.58758Z" fill="#4E4E4E"/>
</svg>
