<svg width="12" height="14" viewBox="0 0 12 14" fill="none" xmlns="http://www.w3.org/2000/svg">
<path d="M11.25 13V5.5C11.25 5.086 10.914 4.75 10.5 4.75C10.086 4.75 9.75 5.086 9.75 5.5V13C9.75 13.414 10.086 13.75 10.5 13.75C10.914 13.75 11.25 13.414 11.25 13ZM6.75 13V1C6.75 0.586 6.414 0.25 6 0.25C5.586 0.25 5.25 0.586 5.25 1V13C5.25 13.414 5.586 13.75 6 13.75C6.414 13.75 6.75 13.414 6.75 13ZM2.25 13V8.5C2.25 8.086 1.914 7.75 1.5 7.75C1.086 7.75 0.75 8.086 0.75 8.5V13C0.75 13.414 1.086 13.75 1.5 13.75C1.914 13.75 2.25 13.414 2.25 13Z" fill="#4E4E4E"/>
</svg>
