<svg width="17" height="18" viewBox="0 0 17 18" fill="none" xmlns="http://www.w3.org/2000/svg">
<path d="M1.4375 0.428558C0.989 0.428558 0.625 0.812558 0.625 1.2857V7.2857C0.625 7.75884 0.989 8.14284 1.4375 8.14284H7.125C7.5735 8.14284 7.9375 7.75884 7.9375 7.2857V1.2857C7.9375 0.812558 7.5735 0.428558 7.125 0.428558H1.4375ZM2.25 2.14284H6.3125V6.42856H2.25V2.14284ZM10.375 0.428558C9.9265 0.428558 9.5625 0.812558 9.5625 1.2857V7.2857C9.5625 7.75884 9.9265 8.14284 10.375 8.14284H16.0625C16.511 8.14284 16.875 7.75884 16.875 7.2857V1.2857C16.875 0.812558 16.511 0.428558 16.0625 0.428558H10.375ZM11.1875 2.14284H15.25V6.42856H11.1875V2.14284ZM10.375 9.85713C9.9265 9.85713 9.5625 10.2411 9.5625 10.7143V16.7143C9.5625 17.1874 9.9265 17.5714 10.375 17.5714H16.0625C16.511 17.5714 16.875 17.1874 16.875 16.7143V10.7143C16.875 10.2411 16.511 9.85713 16.0625 9.85713H10.375ZM11.1875 11.5714H15.25V15.8571H11.1875V11.5714ZM1.4375 9.85713C0.989 9.85713 0.625 10.2411 0.625 10.7143V16.7143C0.625 17.1874 0.989 17.5714 1.4375 17.5714H7.125C7.5735 17.5714 7.9375 17.1874 7.9375 16.7143V10.7143C7.9375 10.2411 7.5735 9.85713 7.125 9.85713H1.4375ZM2.25 11.5714H6.3125V15.8571H2.25V11.5714Z" fill="white"/>
</svg>
