<svg width="18" height="16" viewBox="0 0 18 16" fill="none" xmlns="http://www.w3.org/2000/svg">
<path d="M15.0996 2.98775C15.4251 3.31325 15.6689 3.686 15.8324 4.082C16.0034 4.4945 16.0889 4.93475 16.0889 5.37575C16.0889 5.81675 16.0026 6.257 15.8324 6.6695C15.6681 7.06625 15.4244 7.43825 15.1004 7.76225L8.99987 13.862L2.90012 7.76225C2.57612 7.43825 2.33237 7.0655 2.16812 6.66875C1.99712 6.25625 1.91162 5.816 1.91162 5.375C1.91162 4.934 1.99712 4.49375 2.16812 4.08125C2.33237 3.6845 2.57612 3.3125 2.90012 2.98775C3.22412 2.663 3.59687 2.42 3.99362 2.25575C4.40612 2.08475 4.84637 1.99925 5.28737 1.99925C5.72837 1.99925 6.16862 2.08475 6.58112 2.25575C6.97787 2.42 7.34987 2.66375 7.67462 2.98775L8.46962 3.78275C8.76287 4.076 9.23762 4.076 9.53012 3.78275L10.3266 2.98625C10.6506 2.66225 11.0234 2.4185 11.4201 2.25425C11.8326 2.08325 12.2729 1.99775 12.7139 1.99775C13.1549 1.99775 13.5951 2.084 14.0076 2.25425C14.4044 2.4185 14.7764 2.66225 15.1004 2.98625L15.0996 2.98775ZM16.1601 1.92725C15.6944 1.4615 15.1559 1.10825 14.5806 0.869755C13.9836 0.622255 13.3484 0.498505 12.7131 0.498505C12.0779 0.498505 11.4426 0.621505 10.8456 0.869005C10.2704 1.1075 9.73187 1.46 9.26537 1.92575L8.99987 2.192L8.73512 1.92725C8.26937 1.4615 7.73087 1.10825 7.15487 0.869755C6.55787 0.622255 5.92187 0.499255 5.28737 0.499255C4.65287 0.499255 4.01687 0.622255 3.41987 0.869755C2.84462 1.10825 2.30612 1.46075 1.83962 1.92725C1.37312 2.39375 1.02062 2.9315 0.782121 3.5075C0.534621 4.1045 0.411621 4.73975 0.411621 5.375C0.411621 6.01025 0.535371 6.6455 0.782121 7.2425C1.02062 7.81775 1.37312 8.35625 1.83962 8.82275L8.46962 15.4528C8.76287 15.746 9.23762 15.746 9.53012 15.4528L16.1601 8.82275C16.6259 8.357 16.9791 7.8185 17.2176 7.24325C17.4651 6.64625 17.5889 6.011 17.5889 5.37575C17.5889 4.7405 17.4659 4.10525 17.2184 3.50825C16.9799 2.933 16.6274 2.3945 16.1601 1.92725V1.92725Z" fill="#4E4E4E"/>
</svg>
