<svg width="17" height="12" viewBox="0 0 17 12" fill="none" xmlns="http://www.w3.org/2000/svg">
<path d="M5 1.71429H15.5625C16.011 1.71429 16.375 1.33029 16.375 0.857143C16.375 0.384 16.011 0 15.5625 0H5C4.5515 0 4.1875 0.384 4.1875 0.857143C4.1875 1.33029 4.5515 1.71429 5 1.71429ZM5 6.85714H15.5625C16.011 6.85714 16.375 6.47314 16.375 6C16.375 5.52686 16.011 5.14286 15.5625 5.14286H5C4.5515 5.14286 4.1875 5.52686 4.1875 6C4.1875 6.47314 4.5515 6.85714 5 6.85714ZM5 12H15.5625C16.011 12 16.375 11.616 16.375 11.1429C16.375 10.6697 16.011 10.2857 15.5625 10.2857H5C4.5515 10.2857 4.1875 10.6697 4.1875 11.1429C4.1875 11.616 4.5515 12 5 12ZM1.75 0.857143C1.75 0.384 1.386 0 0.9375 0C0.489 0 0.125 0.384 0.125 0.857143C0.125 1.33029 0.489 1.71429 0.9375 1.71429C1.386 1.71429 1.75 1.33029 1.75 0.857143ZM1.75 6C1.75 5.52686 1.386 5.14286 0.9375 5.14286C0.489 5.14286 0.125 5.52686 0.125 6C0.125 6.47314 0.489 6.85714 0.9375 6.85714C1.386 6.85714 1.75 6.47314 1.75 6ZM1.75 11.1429C1.75 10.6697 1.386 10.2857 0.9375 10.2857C0.489 10.2857 0.125 10.6697 0.125 11.1429C0.125 11.616 0.489 12 0.9375 12C1.386 12 1.75 11.616 1.75 11.1429Z" fill="#EC1D2E"/>
</svg>
